<svg width="40" height="40" viewBox="0 0 40 40" fill="none" xmlns="http://www.w3.org/2000/svg">
<path d="M20 39.8171C30.9147 39.8171 39.8171 30.9489 39.8171 20C39.8171 9.0512 30.9147 0.182983 20 0.182983C9.08527 0.182983 0.182945 9.08531 0.182945 20C0.182945 30.9148 9.08527 39.8171 20 39.8171ZM20 2.97988C29.3798 2.97988 37.0202 10.6202 37.0202 20C37.0202 29.3799 29.3798 37.0202 20 37.0202C10.6202 37.0202 2.97984 29.3799 2.97984 20C2.97984 10.6202 10.6202 2.97988 20 2.97988Z" fill="#26A7AD"/>
<path d="M15.4295 29.8915C15.7023 30.1644 16.0434 30.3008 16.4186 30.3008C16.7597 30.3008 17.1349 30.1644 17.4078 29.8915L26.4124 20.8869C26.6853 20.614 26.8217 20.2729 26.8217 19.8977C26.8217 19.5225 26.6853 19.1814 26.4124 18.9086L17.4078 9.90393C16.862 9.35819 15.9752 9.35819 15.4295 9.90393C14.8837 10.4497 14.8837 11.3365 15.4295 11.8822L23.445 19.8977L15.4295 27.9132C14.8837 28.459 14.8837 29.3458 15.4295 29.8915Z" fill="#26A7AD"/>
</svg>
